<svg width="29" height="29" viewBox="0 0 29 29" fill="none" xmlns="http://www.w3.org/2000/svg">
<g clip-path="url(#clip0)">
<path d="M24.457 18.5226C22.8965 16.9623 21.0392 15.8071 19.0128 15.1079C21.1832 13.6131 22.6091 11.1113 22.6091 8.28253C22.6091 3.71555 18.8935 0 14.3265 0C9.75956 0 6.04401 3.71555 6.04401 8.28253C6.04401 11.1113 7.46989 13.6131 9.6403 15.1079C7.61388 15.8071 5.75658 16.9623 4.19616 18.5226C1.49024 21.2286 0 24.8263 0 28.6531H2.23852C2.23852 21.9877 7.66117 16.5651 14.3265 16.5651C20.9919 16.5651 26.4145 21.9877 26.4145 28.6531H28.6531C28.6531 24.8263 27.1628 21.2286 24.457 18.5226ZM14.3265 14.3265C10.9939 14.3265 8.28253 11.6152 8.28253 8.28253C8.28253 4.94982 10.9939 2.23852 14.3265 2.23852C17.6592 2.23852 20.3705 4.94982 20.3705 8.28253C20.3705 11.6152 17.6592 14.3265 14.3265 14.3265Z" fill="white"/>
</g>
<defs>
<clipPath id="clip0">
<rect width="28.6531" height="28.6531" fill="white"/>
</clipPath>
</defs>
</svg>
